<?xml version="1.0" standalone="no"?>
<!DOCTYPE svg PUBLIC "-//W3C//DTD SVG 20010904//EN"
 "http://www.w3.org/TR/2001/REC-SVG-20010904/DTD/svg10.dtd">
<svg version="1.0" xmlns="http://www.w3.org/2000/svg"
 width="512.000000pt" height="512.000000pt" viewBox="0 0 512.000000 512.000000"
 preserveAspectRatio="xMidYMid meet">
<metadata>
Created by potrace 1.11, written by Peter Selinger 2001-2013
</metadata>
<g transform="translate(0.000000,512.000000) scale(0.100000,-0.100000)"
fill="#000000" stroke="none">
<path d="M2167 4890 c-712 -45 -1386 -443 -1788 -1057 -179 -274 -302 -600
-356 -948 -24 -154 -24 -497 0 -655 109 -702 504 -1300 1102 -1666 364 -222
766 -334 1205 -336 345 -2 666 65 964 201 38 17 73 31 78 31 6 0 49 -26 97
-58 146 -98 303 -153 496 -173 180 -19 320 5 440 76 110 64 214 198 245 315 7
25 18 93 25 151 14 121 36 177 95 238 53 54 125 89 210 101 38 5 79 16 90 22
31 19 53 75 46 113 -7 38 -56 85 -89 86 -214 9 -415 -109 -511 -300 -43 -85
-53 -123 -64 -242 -15 -159 -73 -251 -197 -310 -56 -27 -68 -29 -182 -29 -169
0 -312 36 -436 108 l-47 28 72 50 c323 220 596 538 772 897 157 320 224 597
233 963 8 310 -24 534 -113 803 -139 421 -400 793 -756 1082 -454 369 -1024
547 -1631 509z m966 -2032 c562 -1503 675 -1814 665 -1826 -7 -9 -46 -44 -87
-79 -54 -46 -77 -60 -82 -51 -8 14 -1398 3721 -1406 3751 -5 15 5 17 113 17
l119 0 678 -1812z m-292 1756 c59 -14 112 -31 118 -37 5 -7 271 -711 591
-1566 385 -1028 580 -1560 576 -1575 -3 -11 -37 -63 -75 -115 l-70 -94 -11 29
c-6 16 -293 780 -637 1699 -344 919 -627 1673 -630 1678 -7 12 27 8 138 -19z
m-786 -149 c29 -80 33 -101 23 -111 -92 -88 -1853 -1723 -1854 -1721 -4 4 16
205 26 269 l12 66 871 811 c619 577 873 807 879 798 4 -8 23 -58 43 -112z
m-445 61 c-123 -117 -1201 -1116 -1205 -1116 -3 0 19 48 49 108 224 446 613
805 1081 998 96 40 107 41 75 10z m1772 -128 c59 -34 121 -73 137 -87 25 -21
51 -83 151 -351 67 -179 128 -336 136 -348 23 -36 78 -55 118 -42 79 26 97 88
56 196 -56 150 -79 214 -76 214 1 0 34 -39 73 -87 239 -299 390 -637 449
-1008 15 -93 31 -364 21 -355 -3 3 -48 119 -100 257 -52 139 -102 264 -112
279 -56 86 -195 45 -195 -58 0 -20 74 -232 174 -500 l175 -467 -21 -72 c-18
-63 -34 -109 -78 -224 -9 -25 -13 -27 -20 -14 -5 9 -234 616 -509 1350 -274
734 -504 1347 -510 1363 -14 36 -10 35 131 -46z m-1163 -373 l42 -109 -23 -22
c-289 -277 -1953 -1813 -1958 -1807 -10 10 -40 178 -40 220 0 30 71 99 967
933 531 495 967 899 969 897 1 -1 21 -51 43 -112z m171 -455 c38 -99 39 -105
22 -121 -9 -9 -456 -425 -991 -924 l-975 -906 -20 38 c-10 21 -32 69 -48 107
-23 56 -26 72 -16 82 320 303 1983 1843 1985 1837 2 -5 21 -55 43 -113z m168
-447 l41 -108 -38 -35 c-21 -19 -448 -417 -950 -885 -502 -467 -916 -851 -920
-853 -8 -3 -117 144 -125 168 -3 10 336 331 966 918 534 496 974 902 978 902
4 0 26 -48 48 -107z m151 -402 c11 -32 21 -69 21 -82 0 -29 -238 -2134 -245
-2167 -5 -21 -9 -22 -115 -22 -82 0 -110 3 -110 13 1 6 56 496 124 1087 l123
1074 83 78 c45 43 86 78 90 78 4 0 17 -26 29 -59z m-565 -1312 c-58 -514 -108
-936 -110 -938 -6 -6 -187 28 -203 38 -10 7 6 172 78 812 50 442 94 814 98
826 5 12 60 70 123 128 89 82 116 101 118 87 2 -10 -45 -439 -104 -953z m853
540 l81 -215 -69 -598 c-37 -329 -70 -600 -72 -603 -8 -7 -217 -57 -221 -52
-3 3 37 378 89 834 52 456 95 838 95 849 0 38 17 1 97 -215z m-1321 -717 c-40
-353 -76 -645 -79 -648 -6 -7 -195 74 -203 87 -3 5 20 235 51 511 l57 503 121
116 c101 97 122 113 125 95 1 -11 -31 -310 -72 -664z m-461 -111 c-19 -168
-35 -308 -35 -313 0 -18 -23 -5 -107 58 -105 80 -235 194 -231 205 8 20 403
378 406 367 1 -7 -13 -150 -33 -317z m2139 -125 c47 -126 86 -232 86 -235 0
-3 -15 -15 -33 -25 -34 -20 -224 -116 -229 -116 -3 0 67 624 72 640 2 7 7 -6
104 -264z"/>
<path d="M3964 3432 c-93 -59 -52 -202 58 -202 32 0 47 7 74 34 28 28 34 42
34 75 0 85 -94 138 -166 93z"/>
</g>
</svg>
